                      <svg fill="none" xmlns="http://www.w3.org/2000/svg">
                       <path d="M8.07519 8.08372C0.443411 15.7155 0 16.176 0 16.4574C0 16.7388 0.443411 17.1992 8.12636 24.8822C15.2891 32.0364 16.2783 33 16.5 33C16.7217 33 17.7194 32.045 24.8822 24.8736C32.5566 17.1992 33 16.7388 33 16.4574C33 16.176 32.5566 15.7155 24.9163 8.07519C16.9008 0.0596886 16.8411 0 16.5 0C16.1589 0 16.0992 0.0596886 8.07519 8.08372ZM19.5016 9.27752L17.2674 11.5116L17.2248 8.39923L17.1822 5.28682L11.0853 11.3837L4.98837 17.4806H9.2093H13.4302L14.5984 16.3124L15.7752 15.1357V17.2248V19.314L12.9868 22.1023L10.1899 24.8992L5.99457 20.7039L1.7907 16.5L9.14109 9.14961L16.5 1.7907L19.1178 4.40853L21.7442 7.03488L19.5016 9.27752ZM23.8589 23.8504L16.5 31.2093L13.8566 28.5574L11.2132 25.914L13.4729 23.6884L15.7326 21.4713L15.7752 24.5922L15.8178 27.7132L21.9147 21.6163L28.0116 15.5194H23.7907H19.5698L18.4016 16.6876L17.2248 17.8643V15.7752V13.686L20.0132 10.8977L22.8101 8.10077L27.0054 12.2961L31.2093 16.5L23.8589 23.8504ZM14.3085 14.4705L12.8333 15.9457H10.7016H8.56977L12.1512 12.424L15.7326 8.8938L15.7581 10.9488L15.7752 12.9953L14.3085 14.4705ZM20.8488 20.5504L17.2674 24.1318L17.2419 22.0682L17.2248 20.0047L18.7341 18.4868L20.2519 16.969H22.3411H24.4302L20.8488 20.5504Z" fill="white"/>
                      </svg>